<svg id="Capa_1" enable-background="new 0 0 512.028 512.028" height="512" viewBox="0 0 512.028 512.028" width="512" xmlns="http://www.w3.org/2000/svg"><g><path d="m62.178 463.601-1.991-53.379c-.355-9.514-3.39-18.735-8.757-26.599l-32.527-47.668c-14.813-21.709-15.187-50.176-.949-72.265l56.072-87.046 36.619 126.156-14.709 157.011z" fill="#f1d0a5"/><path d="m478.806 314.178h-382.837c-14.206 0-25.722-11.516-25.722-25.722v-255.22c0-14.206 11.516-25.722 25.722-25.722h382.837c14.206 0 25.722 11.516 25.722 25.722v255.22c0 14.206-11.516 25.722-25.722 25.722z" fill="#365e7d"/><path d="m478.806 7.514h-17.466c14.206 0 25.722 11.516 25.722 25.722v255.22c0 14.206-11.516 25.722-25.722 25.722h17.467c14.206 0 25.722-11.516 25.722-25.722v-255.22c-.001-14.206-11.517-25.722-25.723-25.722z" fill="#2b4d66"/><path d="m468.886 41.757h-352.091c-.771 0-1.399.664-1.399 1.479v235.22c0 .815.628 1.479 1.399 1.479h352.091c.772 0 1.4-.664 1.4-1.479v-235.22c0-.815-.628-1.479-1.4-1.479z" fill="#d3effb"/><path d="m468.886 41.757h-18.686c.772 0 1.4.664 1.4 1.479v235.22c0 .815-.628 1.479-1.4 1.479h18.686c.772 0 1.4-.664 1.4-1.479v-235.22c0-.815-.628-1.479-1.4-1.479z" fill="#b1e4f9"/><path d="m134.93 455.588.91-39.143c.145-6.242 1.267-12.422 3.326-18.317 5.782-16.558 2.507-34.932-8.638-48.473-2.346-2.85-2.713-6.845-.925-10.075l47.369-85.584c3.842-6.941 2.572-15.592-3.102-21.137-7.103-6.941-18.537-6.643-25.269.658l-78.796 85.449 5.184 59.55 20.947 81.296z" fill="#f1d0a5"/><path d="m176.972 253.995c3.841-6.941 2.572-15.592-3.102-21.136-6.4-6.254-16.304-6.611-23.129-1.285.509.398 1.003.823 1.476 1.285 5.674 5.544 6.944 14.196 3.102 21.136l-47.37 85.584c-1.788 3.23-1.421 7.225.925 10.075 11.146 13.541 14.42 31.915 8.638 48.473-2.058 5.895-3.181 12.075-3.326 18.317l-.491 21.115c-.24 10.317-8.088 18.859-18.348 19.97l.588 2.281 38.994-4.223.885-38.082c.153-6.573 1.16-13.127 3.334-19.332 5.804-16.57 2.534-34.966-8.622-48.519-2.346-2.85-2.713-6.845-.925-10.075z" fill="#f1b986"/><path d="m411.495 247.068h-100.682c-7.112 0-12.877-5.765-12.877-12.877v-32.312c0-7.112 5.765-12.877 12.877-12.877h100.682c7.112 0 12.877 5.765 12.877 12.877v32.312c-.001 7.112-5.766 12.877-12.877 12.877z" fill="#80e29d"/><path d="m411.494 189.002h-19.947c7.112 0 12.877 5.765 12.877 12.877v32.312c0 7.112-5.765 12.877-12.877 12.877h19.947c7.112 0 12.877-5.765 12.877-12.877v-32.312c0-7.112-5.765-12.877-12.877-12.877z" fill="#66b49d"/><g><path d="m462.734 504.514v-34.83c0-6.586 1.818-13.017 5.212-18.438l14.894-23.791c6.908-11.034 8.458-25.101 4.146-37.636l-7.055-20.513-13.637-28.882h-100.782l-23.154 28.882-34.658-16.874c-6.29-3.062-13.644-1.511-18.461 3.896-6.388 7.169-6.294 18.684.21 25.726l44.931 48.645c5.103 5.525 7.978 13.078 7.978 20.961v52.855h120.376z" fill="#f1d0a5"/></g><g><path d="m486.986 389.819-7.055-20.513-13.637-28.883-15.856-.557 12.296 29.44 5.511 20.513c4.311 12.534 2.761 26.602-4.146 37.636l-14.894 23.791c-3.394 5.421-5.212 11.852-5.212 18.438v34.83h18.741v-34.83c0-6.586 1.818-13.017 5.212-18.438l14.894-23.791c6.907-11.034 8.457-25.101 4.146-37.636z" fill="#f1b986"/></g><g fill="#f1d0a5"><path d="m376.751 369.306v-128.319c0-10.464-7.699-18.946-17.197-18.946-9.497 0-17.197 8.482-17.197 18.946v128.319z"/><path d="m411.144 369.306v-55.47c0-6.349-5.77-11.495-12.888-11.495h-8.617c-7.118 0-12.888 5.147-12.888 11.495v55.47z"/><path d="m445.538 369.306v-55.47c0-6.349-5.77-11.495-12.888-11.495h-8.617c-7.118 0-12.888 5.147-12.888 11.495v55.47z"/><path d="m479.931 369.306v-55.47c0-6.349-5.77-11.495-12.888-11.495h-8.617c-7.118 0-12.888 5.147-12.888 11.495v55.47z"/></g><path d="m467.043 302.341h-8.617c-1.506 0-2.946.243-4.29.666 5.005 1.578 8.598 5.824 8.598 10.829v55.47h17.197v-55.47c0-6.349-5.77-11.495-12.888-11.495z" fill="#f1b986"/><path d="m268.655 195.218c-31.296 13.097-62.591 13.097-93.887 0-3.019-1.264-4.994-4.209-4.994-7.482v-75.213h103.875v75.213c0 3.273-1.975 6.219-4.994 7.482z" fill="#4a80aa"/><path d="m260.025 112.522v69.277c0 3.273-1.975 6.219-4.994 7.482-27.677 11.583-55.354 12.914-83.03 4.01.766.811 1.697 1.478 2.768 1.926 31.296 13.097 62.591 13.097 93.887 0 3.019-1.264 4.994-4.209 4.994-7.482v-75.213z" fill="#407093"/><path d="m302.179 115.57-79.594 43.799c-.544.299-1.203.299-1.746 0l-79.594-43.799c-1.251-.688-1.251-2.485 0-3.174l79.594-43.799c.544-.299 1.203-.299 1.746 0l79.594 43.799c1.25.688 1.25 2.486 0 3.174z" fill="#365e7d"/><path d="m302.179 112.396-79.594-43.799c-.544-.299-1.203-.299-1.746 0l-12.751 7.017 66.842 36.782c1.251.688 1.251 2.485 0 3.174l-66.842 36.782 12.751 7.017c.544.299 1.203.299 1.746 0l79.594-43.799c1.25-.688 1.25-2.486 0-3.174z" fill="#2b4d66"/><g><path d="m478.806.014h-382.836c-18.319 0-33.223 14.903-33.223 33.222v67.895c0 4.143 3.357 7.5 7.5 7.5s7.5-3.357 7.5-7.5v-67.895c0-10.048 8.175-18.222 18.223-18.222h382.836c10.048 0 18.223 8.174 18.223 18.222v255.22c0 7.748-4.793 14.398-11.706 17.021-3.327-6.289-10.26-10.637-18.28-10.637h-8.617c-4.886 0-9.373 1.612-12.888 4.292-3.515-2.68-8.002-4.292-12.888-4.292h-8.617c-4.886 0-9.373 1.612-12.888 4.292-3.515-2.68-8.003-4.292-12.888-4.292h-8.616c-1.868 0-3.669.255-5.389.695v-8.1h84.635c4.907 0 8.9-4.027 8.9-8.979v-235.22c0-4.951-3.993-8.979-8.9-8.979h-352.092c-4.906 0-8.898 4.027-8.898 8.979v223.358l-28.01 30.375c-1.375-2.599-2.14-5.51-2.14-8.513v-156.554c0-4.143-3.357-7.5-7.5-7.5s-7.5 3.357-7.5 7.5v48.451l-51.097 79.273c-15.909 24.681-15.494 56.3 1.057 80.555l32.527 47.668c4.576 6.706 7.155 14.539 7.457 22.651l1.991 53.38c.151 4.045 3.477 7.221 7.49 7.221.094 0 .189-.002.284-.005 4.14-.154 7.37-3.636 7.216-7.774l-1.991-53.38c-.408-10.94-3.886-21.504-10.057-30.548l-32.527-47.668c-13.145-19.262-13.474-44.373-.84-63.973l38.489-59.714v80.416c0 7.236 2.367 14.208 6.632 19.908l-5.088 5.518c-2.808 3.045-2.615 7.79.43 10.598 3.044 2.808 7.789 2.617 10.598-.43l78.795-85.448c3.911-4.24 10.479-4.322 14.515-.378 3.248 3.174 3.98 8.167 1.782 12.141l-47.369 85.583c-3.301 5.962-2.635 13.214 1.695 18.475 9.419 11.442 12.235 27.242 7.349 41.233-2.319 6.643-3.579 13.579-3.743 20.615l-.91 39.144c-.097 4.142 3.183 7.576 7.323 7.673.06.001.119.002.178.002 4.062 0 7.4-3.244 7.495-7.325l.91-39.144c.127-5.468 1.106-10.857 2.909-16.02 6.601-18.903 2.797-40.251-9.93-55.712-.393-.478-.453-1.135-.153-1.677l11.918-21.533h186.775v35.635l-23.874-11.624c-9.307-4.529-20.295-2.261-27.344 5.648-9.023 10.126-8.892 25.853.299 35.805l44.932 48.646c3.805 4.119 5.987 9.904 5.987 15.871v52.855c0 4.143 3.357 7.5 7.5 7.5s7.5-3.357 7.5-7.5v-52.855c0-9.839-3.54-19.09-9.968-26.049l-44.932-48.646c-3.88-4.2-3.935-11.366-.119-15.647 2.57-2.884 6.329-3.724 9.578-2.142l34.657 16.874c4.989 2.441 10.783-1.264 10.783-6.743v-128.319c0-6.311 4.351-11.445 9.697-11.445s9.696 5.135 9.696 11.445v128.319c0 4.143 3.357 7.5 7.5 7.5s7.5-3.357 7.5-7.5v-55.47c0-2.166 2.468-3.996 5.389-3.996h8.616c2.921 0 5.389 1.83 5.389 3.996v55.47c0 4.143 3.357 7.5 7.5 7.5s7.5-3.357 7.5-7.5v-55.47c0-2.166 2.467-3.996 5.388-3.996h8.617c2.921 0 5.388 1.83 5.388 3.996v55.47c0 4.143 3.357 7.5 7.5 7.5s7.5-3.357 7.5-7.5v-55.47c0-2.166 2.468-3.996 5.389-3.996h8.617c2.921 0 5.388 1.83 5.388 3.996v55.47c0 .773.17 1.747.408 2.439l7.056 20.514c1.646 4.788 2.292 10.02 1.866 15.129-.343 4.128 2.725 7.753 6.853 8.097.212.018.422.025.631.025 3.859 0 7.14-2.962 7.466-6.878.596-7.164-.313-14.514-2.632-21.252l-6.647-19.327v-47.508c14.335-3.808 24.598-16.783 24.598-32.09v-255.219c-.001-18.319-14.904-33.222-33.223-33.222zm-322.421 306.664 10.651-19.243h167.822v19.243zm203.17-92.136c-13.174 0-23.97 11.102-24.661 25.026h-24.082c-2.965 0-5.377-2.412-5.377-5.377v-32.312c0-2.965 2.412-5.377 5.377-5.377h33.748c4.143 0 7.5-3.357 7.5-7.5s-3.357-7.5-7.5-7.5h-33.748c-11.236 0-20.377 9.141-20.377 20.377v32.312c0 11.236 9.141 20.377 20.377 20.377h24.045v17.867h-159.519l8.196-14.808c5.458-9.864 3.64-22.255-4.423-30.133-10.109-9.879-26.399-9.502-36.025.938l-20.189 21.894v-201.069h339.89v223.178h-78.535v-17.867h27.243c11.236 0 20.377-9.141 20.377-20.377v-32.312c0-11.236-9.141-20.377-20.377-20.377h-36.946c-4.143 0-7.5 3.357-7.5 7.5s3.357 7.5 7.5 7.5h36.946c2.965 0 5.377 2.412 5.377 5.377v32.312c0 2.965-2.412 5.377-5.377 5.377h-27.28c-.692-13.925-11.488-25.026-24.66-25.026z"/><path d="m100.542 166.946v-12.199c0-4.143-3.357-7.5-7.5-7.5s-7.5 3.357-7.5 7.5v12.199c0 4.143 3.357 7.5 7.5 7.5s7.5-3.358 7.5-7.5z"/><path d="m481.121 430.199c-3.512-2.198-8.139-1.133-10.337 2.378l-9.194 14.689c-4.158 6.64-6.355 14.393-6.355 22.418v34.83c0 4.143 3.357 7.5 7.5 7.5s7.5-3.357 7.5-7.5v-34.83c0-5.207 1.407-10.207 4.069-14.459l9.195-14.689c2.197-3.511 1.133-8.139-2.378-10.337z"/><path d="m305.795 105.826-79.599-43.802c-2.809-1.544-6.162-1.542-8.975.002l-79.596 43.801c-2.973 1.637-4.819 4.763-4.819 8.156s1.847 6.52 4.821 8.158l24.646 13.562v52.033c0 6.308 3.768 11.96 9.599 14.401 33.071 13.838 66.606 13.839 99.68-.001 5.83-2.44 9.597-8.093 9.597-14.4v-52.033l24.646-13.563c2.975-1.637 4.822-4.763 4.822-8.157s-1.847-6.521-4.822-8.157zm-39.647 81.91c0 .244-.153.465-.389.563-29.639 12.404-58.457 12.405-88.096.001-.237-.1-.391-.321-.391-.564v-43.779l39.944 21.98c1.407.775 2.951 1.163 4.495 1.163 1.542 0 3.084-.387 4.488-1.16l18.695-10.288v16.157c0 4.143 3.357 7.5 7.5 7.5s7.5-3.357 7.5-7.5v-24.411l6.252-3.44v43.778zm-12.578-53.979-26.709-25.227c-3.011-2.844-7.758-2.71-10.602.303-2.845 3.011-2.709 7.758.303 10.602l23.205 21.917-18.057 9.936c-18.638-10.256-46.548-25.614-67.794-37.306l67.794-37.306 67.795 37.306c-8.864 4.879-27.119 14.924-35.935 19.775z"/><path d="m337.789 114.395h56.158c4.143 0 7.5-3.357 7.5-7.5s-3.357-7.5-7.5-7.5h-56.158c-4.143 0-7.5 3.357-7.5 7.5s3.358 7.5 7.5 7.5z"/><path d="m441.447 141.303c0-4.143-3.357-7.5-7.5-7.5h-96.158c-4.143 0-7.5 3.357-7.5 7.5s3.357 7.5 7.5 7.5h96.158c4.143 0 7.5-3.357 7.5-7.5z"/></g></g></svg>